<?xml version="1.0" encoding="utf-8"?>
<!-- Generator: Adobe Illustrator 16.0.0, SVG Export Plug-In . SVG Version: 6.00 Build 0)  -->
<!DOCTYPE svg PUBLIC "-//W3C//DTD SVG 1.1//EN" "http://www.w3.org/Graphics/SVG/1.1/DTD/svg11.dtd">
<svg version="1.1" id="Layer_1" xmlns="http://www.w3.org/2000/svg" xmlns:xlink="http://www.w3.org/1999/xlink" x="0px" y="0px"
	 width="487.333px" height="143px" viewBox="8.737 6.159 487.333 143" enable-background="new 8.737 6.159 487.333 143"
	 xml:space="preserve">
<g>
	<path fill="#ED1968" d="M83.375,117.216H61.563V67.901v-4.426c0-5.059-1.531-8.742-4.583-11.063
		c-3.058-2.315-6.481-3.478-10.274-3.478s-7.167,1.161-10.116,3.478c-2.954,2.321-4.426,6.006-4.426,11.063v53.741H10.036V67.901
		c0-14.328,3.739-23.916,11.222-28.767c7.478-4.846,15.752-7.479,24.815-7.903c4.845,0,9.587,0.528,14.225,1.581
		c4.633,1.058,8.852,3.16,12.646,6.322c3.161-2.737,6.9-4.688,11.222-5.85c4.317-1.155,8.797-1.842,13.436-2.055
		c9.271,0,17.806,2.426,25.605,7.271c7.794,4.851,11.696,14.649,11.696,29.398v49.315h-11.064c-3.161,0-5.745-1-7.745-3.004
		c-2.005-2-3.003-4.584-3.003-7.746v-42.99c0-5.059-1.531-8.742-4.584-11.063c-3.058-2.315-6.48-3.478-10.273-3.478
		c-3.794,0-7.222,1.161-10.274,3.478c-3.058,2.321-4.584,6.006-4.584,11.063v4.426L83.375,117.216L83.375,117.216z"/>
	<path fill="#ED1968" d="M217.486,33.127v49.314c0,14.966-3.902,24.767-11.696,29.398c-7.8,4.637-16.334,6.955-25.606,6.955
		c-9.063-0.426-17.337-2.949-24.815-7.588c-7.483-4.633-11.222-14.226-11.222-28.767V33.127h22.128v53.741
		c0,5.058,1.472,8.746,4.426,11.063c2.949,2.322,6.322,3.479,10.116,3.479s7.216-1.156,10.274-3.479
		c3.052-2.315,4.583-6.005,4.583-11.063V43.876c0-2.948,0.998-5.479,3.004-7.588c2-2.104,4.583-3.161,7.744-3.161H217.486z"/>
	<path fill="#ED1968" d="M224.2,117.216v-40.78c0-8.22,1.21-15.119,3.635-20.706c2.42-5.581,5.74-10.062,9.958-13.435
		c4.001-3.161,8.693-5.479,14.067-6.955c5.373-1.472,10.906-2.213,16.597-2.213c0.42,0,0.946,0,1.58,0c0.631,0,1.153,0,1.58,0
		v22.445h-7.271c-6.115,0-10.645,1.476-13.593,4.425c-2.954,2.954-4.426,7.587-4.426,13.909v43.31H224.2z"/>
	<path fill="#ED1968" d="M330.807,113.738c-4.424,2.322-9.116,3.738-14.065,4.269c-4.953,0.522-9.324,0.791-13.119,0.791
		c-7.586,0-14.227-2.057-19.916-6.164c-5.689-4.111-8.535-10.908-8.535-20.39c0-8.853,2.578-15.175,7.746-18.969
		c5.16-3.793,11.746-6.321,19.757-7.587c1.052,0,2.313-0.159,3.791-0.475c1.473-0.315,3.162-0.577,5.06-0.79
		c9.271-1.265,13.909-4,13.909-8.219c0-3.162-1.635-5.217-4.899-6.164c-3.271-0.948-6.271-1.423-9.01-1.423
		c-2.953,0-5.586,0.425-7.902,1.265c-2.322,0.845-4.006,2.425-5.057,4.741h-21.182c0.84-6.529,3.793-11.903,8.852-16.122
		c5.689-4.847,13.801-7.271,24.342-7.271c11.801,0,20.649,2.006,26.555,6.006c6.109,4.22,9.166,10.116,9.166,17.703v28.768
		c0,8.433-1.531,15.016-4.584,19.756C338.657,108.205,335.022,111.634,330.807,113.738z M325.75,74.856
		c-2.953,1.478-7.063,2.847-12.328,4.108l-7.271,1.581c-3.793,1.058-6.535,2.426-8.219,4.108c-1.479,2.321-2.214,4.639-2.214,6.955
		c0,3.161,0.947,5.69,2.847,7.587c1.895,1.689,4.633,2.527,8.217,2.527c5.897,0,10.537-1.684,13.91-5.057
		c3.368-3.369,5.059-8.006,5.059-13.908L325.75,74.856L325.75,74.856z"/>
	<path fill="#ED1968" d="M353.645,8.47h11.38c2.948,0,5.479,1.002,7.588,3.003c2.104,2.006,3.16,4.48,3.16,7.429v98.314h-22.128
		V8.47z"/>
	<path fill="#5A5C5C" d="M383.752,8.47h11.379c2.949,0,5.479,1.002,7.588,3.003c2.104,2.006,3.16,4.48,3.16,7.429v98.314h-22.127
		V8.47z"/>
	<path fill="#5A5C5C" d="M424.924,146.931v-17.389h6.004c4.215,0,7.533-1.002,9.959-3.002c2.42-2.006,2.896-5.217,1.422-9.644
		l-29.397-83.771h24.342l17.07,59.432l14.856-51.844c1.265-5.061,4.634-7.588,10.115-7.588h15.174l-32.244,95.784
		c-2.528,6.955-5.688,11.903-9.483,14.856c-3.793,2.529-10.012,3.793-18.65,3.793c-0.631,0-1.373,0-2.213,0c-0.844,0-1.58,0-2.213,0
		c-0.631-0.211-1.424-0.369-2.369-0.473C426.346,146.98,425.555,146.931,424.924,146.931z"/>
</g>
</svg>
